<svg version="1.0" xmlns="http://www.w3.org/2000/svg" width="700pt" height="700pt" viewBox="0 0 700 700"><g transform="translate(0.000000,700.000000) scale(0.100000,-0.100000)" fill="#000" stroke="none"><path d="M5650 4972V3233l-87 15c-123 19-406 11-523-17-123-28-251-76-359-132-122-64-243-149-238-169 5-19 513-9e2 521-903 3-1 119 194 257 433 139 239 291 502 338 583l86 148 3-183 2-183-156-274c-85-150-158-279-161-287-4-12 22-14 156-14h161v-374-374l-102-179c-56-98-195-340-309-538l-208-360 42-13c103-31 406-33 535-4l43 10-7-31c-10-51-31-84-71-114l-36-28-2579-3-2578-2v-28c0-42 41-104 85-129l40-23h2598c2217 0 2602 2 2625 14 36 19 78 65 91 99 6 16 11 88 11 161v132l78 34c95 41 264 140 314 183l36 32-214 370-214 370v190c0 104 4 185 8 180 5-6 134-228 287-494l278-483 33 38c162 187 287 453 329 699 26 151 19 477-11 527-3 4-212 8-465 8h-459v65 65h445c245 0 445 2 445 5 0 15-53 142-90 215-67 133-156 256-265 365-122 122-240 206-393 281-109 54-116 56-128 39-12-16-14 251-14 1695v1714l-21 43c-21 44-75 84-131 97l-28 6V4972z"/><path d="M1290 5870v-90h1635 1635v90 90H2925 1290v-90z"/><path d="M1290 4950v-90h1635 1636l-3 88-3 87-1632 3-1633 2v-90z"/><path d="M1290 4020v-90h1635 1635v90 90H2925 1290v-90z"/><path d="M750 1825V670h120 120v1155 1155H870 750V1825z"/><path d="M1120 1825V670h55 55v1155 1155h-55-55V1825z"/><path d="M1310 1825V670h50 50v1155 1155h-50-50V1825z"/><path d="M1680 1825V670h120 120v1155 1155h-120-120V1825z"/><path d="M2050 1825V670h50 50v1155 1155h-50-50V1825z"/><path d="M2420 1825V670h50 50v1155 1155h-50-50V1825z"/><path d="M26e2 1825V670h120 120v1155 1155h-120-120V1825z"/><path d="M2970 1825V670h120 120v1155 1155h-120-120V1825z"/><path d="M3347 2973c-4-3-7-523-7-1155V670h55 55v1155 1155h-48c-27 0-52-3-55-7z"/><path d="M3530 1825V670h55 55v1155 1155h-55-55V1825z"/><path d="M4245 2748c-142-165-260-407-310-638-22-103-30-390-13-495l13-80 543-3c298-1 542-1 542 1 0 3-131 231-291 508s-323 559-361 627c-39 67-74 122-78 122-5 0-25-19-45-42z"/><path d="M3984 1369c10-51 73-188 130-284 142-237 357-432 615-557 86-42 105-48 115-37 9 10 411 702 523 902 2 4-309 7-693 7h-696l6-31z"/></g></svg>