<svg xmlns="http://www.w3.org/2000/svg" viewBox="0 0 96 96" height="96" width="96"><g transform="translate(-286.0702,-411.79078)"><g transform="translate(-612.20672,-105.36065)"><rect style="fill:#c4c4c4;fill-opacity:1;stroke:none;stroke-width:1.2393564" width="74.780205" height="91.19873" x="903.4469" y="521.18274" rx="2.4926736" ry="2.4648306" /><rect style="fill:#f9fefa;fill-opacity:1;stroke:none;stroke-width:1.2393564" width="74.780205" height="91.19873" x="900.95422" y="518.71796" rx="2.4926736" ry="2.4648306" /><path style="fill:#e6e6e6;fill-opacity:1;stroke:none;stroke-width:1.2393564" d="m903.44689 518.71798c-1.38095.0-2.49268 1.09931-2.49268 2.46483v86.26907c0 1.36551 1.11173 2.46483 2.49268 2.46483h69.79486c1.38094.0 2.49268-1.09932 2.49268-2.46483v-86.26907c0-1.36552-1.11174-2.46483-2.49268-2.46483zm2.49267 2.46483h64.80952c1.38094.0 2.49267 1.09932 2.49267 2.46483v81.33941c0 1.36551-1.11173 2.46483-2.49267 2.46483h-64.80952c-1.38094.0-2.49267-1.09932-2.49267-2.46483v-81.33941c0-1.36551 1.11173-2.46483 2.49267-2.46483z" /><path style="fill:#ccc;fill-opacity:1;stroke:none;stroke-width:1.2393564" d="M915.91022 531.40692h44.868126v2.4648306H915.91022z" /><path style="fill:#000;fill-opacity:1;stroke:none;stroke-width:1.67271304" d="M572.32251-911.80005h31.650835v3.1824405H572.32251z" transform="rotate(90)" /><path style="fill:#ccc;fill-opacity:1;stroke:none;stroke-width:1.2393564" d="M915.91022 544.09595h44.868126v2.4648306H915.91022z" /><path style="fill:#ccc;fill-opacity:1;stroke:none;stroke-width:1.2393564" d="M915.91022 556.78491h44.868126v2.4648306H915.91022z" /><g style="fill:#000" transform="matrix(1.96875,0,0,1.96875,946.00792,564.50564)"><path d="M0 0H24V24H0z" style="fill:none" /><path d="M10.4 10.5l4.77-8.26C14.47 2.09 13.75 2 13 2 10.6 2 8.4 2.85 6.68 4.25l3.66 6.35zM22.54 9C21.62 6.08 19.39 3.74 16.54 2.66L12.88 9zm.26 1h-7.49l.29.5 4.76 8.25C22 16.97 23 14.61 23 12 23 11.31 22.93 10.65 22.8 10zM9.54 12 5.64 5.25C4.01 7.03 3 9.39 3 12c0 .69.07 1.35.2 2h7.49zm-6.08 3c.92 2.92 3.15 5.26 6 6.34L13.12 15zm11.27.0-3.9 6.76c.7.15 1.42.24 2.17.24 2.4.0 4.6-.85 6.32-2.25L15.66 13.4z" style="fill:#00f;fill-opacity:1;stroke:none;stroke-opacity:1" /></g><path style="fill:#000;fill-opacity:1;stroke:none;stroke-width:1.67271304" d="M572.32251-924.50977h31.650835v3.1824405H572.32251z" transform="rotate(90)" /><path transform="rotate(90)" d="M572.32251-927.74701h31.650835v1.3358672H572.32251z" style="fill:#000;fill-opacity:1;stroke:none;stroke-width:1.08373463" /><path style="fill:#000;fill-opacity:1;stroke:none;stroke-width:1.67271304" d="M572.32251-937.21942h31.650835v3.1824405H572.32251z" transform="rotate(90)" /><path transform="rotate(90)" d="M572.32251-942.30322h31.650835v3.1824405H572.32251z" style="fill:#000;fill-opacity:1;stroke:none;stroke-width:1.67271304" /><path style="fill:#000;fill-opacity:1;stroke:none;stroke-width:1.08373463" d="M572.32251-932.83093h31.650835v1.3358672H572.32251z" transform="rotate(90)" /><path style="fill:#000;fill-opacity:1;stroke:none;stroke-width:1.08373463" d="M572.32251-915.03735h31.650835v1.3358672H572.32251z" transform="rotate(90)" /><path transform="rotate(90)" d="M572.32251-917.57935h31.650835v1.3358672H572.32251z" style="fill:#000;fill-opacity:1;stroke:none;stroke-width:1.08373463" /><path style="fill:#000;fill-opacity:1;stroke:none;stroke-width:1.08373463" d="M572.32251-945.54059h31.650835v1.3358672H572.32251z" transform="rotate(90)" /><path transform="rotate(90)" d="M572.32251-948.08252h31.650835v1.3358672H572.32251z" style="fill:#000;fill-opacity:1;stroke:none;stroke-width:1.08373463" /></g></g></svg>