<?xml version="1.0" standalone="no"?>
<!DOCTYPE svg PUBLIC "-//W3C//DTD SVG 20010904//EN"
 "http://www.w3.org/TR/2001/REC-SVG-20010904/DTD/svg10.dtd">
<svg version="1.0" xmlns="http://www.w3.org/2000/svg"
 width="700.000000pt" height="700.000000pt" viewBox="0 0 700.000000 700.000000"
 preserveAspectRatio="xMidYMid meet">
<metadata>
Created by potrace 1.14, written by Peter Selinger 2001-2017
</metadata>
<g transform="translate(0.000000,700.000000) scale(0.100000,-0.100000)"
fill="#000000" stroke="none">
<path d="M5650 4972 l0 -1739 -87 15 c-123 19 -406 11 -523 -17 -123 -28 -251
-76 -359 -132 -122 -64 -243 -149 -238 -169 5 -19 513 -900 521 -903 3 -1 119
194 257 433 139 239 291 502 338 583 l86 148 3 -183 2 -183 -156 -274 c-85
-150 -158 -279 -161 -287 -4 -12 22 -14 156 -14 l161 0 0 -374 0 -374 -102
-179 c-56 -98 -195 -340 -309 -538 l-208 -360 42 -13 c103 -31 406 -33 535 -4
l43 10 -7 -31 c-10 -51 -31 -84 -71 -114 l-36 -28 -2579 -3 -2578 -2 0 -28 c0
-42 41 -104 85 -129 l40 -23 2598 0 c2217 0 2602 2 2625 14 36 19 78 65 91 99
6 16 11 88 11 161 l0 132 78 34 c95 41 264 140 314 183 l36 32 -214 370 -214
370 0 190 c0 104 4 185 8 180 5 -6 134 -228 287 -494 l278 -483 33 38 c162
187 287 453 329 699 26 151 19 477 -11 527 -3 4 -212 8 -465 8 l-459 0 0 65 0
65 445 0 c245 0 445 2 445 5 0 15 -53 142 -90 215 -67 133 -156 256 -265 365
-122 122 -240 206 -393 281 -109 54 -116 56 -128 39 -12 -16 -14 251 -14 1695
l0 1714 -21 43 c-21 44 -75 84 -131 97 l-28 6 0 -1738z"/>
<path d="M1290 5870 l0 -90 1635 0 1635 0 0 90 0 90 -1635 0 -1635 0 0 -90z"/>
<path d="M1290 4950 l0 -90 1635 0 1636 0 -3 88 -3 87 -1632 3 -1633 2 0 -90z"/>
<path d="M1290 4020 l0 -90 1635 0 1635 0 0 90 0 90 -1635 0 -1635 0 0 -90z"/>
<path d="M750 1825 l0 -1155 120 0 120 0 0 1155 0 1155 -120 0 -120 0 0 -1155z"/>
<path d="M1120 1825 l0 -1155 55 0 55 0 0 1155 0 1155 -55 0 -55 0 0 -1155z"/>
<path d="M1310 1825 l0 -1155 50 0 50 0 0 1155 0 1155 -50 0 -50 0 0 -1155z"/>
<path d="M1680 1825 l0 -1155 120 0 120 0 0 1155 0 1155 -120 0 -120 0 0
-1155z"/>
<path d="M2050 1825 l0 -1155 50 0 50 0 0 1155 0 1155 -50 0 -50 0 0 -1155z"/>
<path d="M2420 1825 l0 -1155 50 0 50 0 0 1155 0 1155 -50 0 -50 0 0 -1155z"/>
<path d="M2600 1825 l0 -1155 120 0 120 0 0 1155 0 1155 -120 0 -120 0 0
-1155z"/>
<path d="M2970 1825 l0 -1155 120 0 120 0 0 1155 0 1155 -120 0 -120 0 0
-1155z"/>
<path d="M3347 2973 c-4 -3 -7 -523 -7 -1155 l0 -1148 55 0 55 0 0 1155 0
1155 -48 0 c-27 0 -52 -3 -55 -7z"/>
<path d="M3530 1825 l0 -1155 55 0 55 0 0 1155 0 1155 -55 0 -55 0 0 -1155z"/>
<path d="M4245 2748 c-142 -165 -260 -407 -310 -638 -22 -103 -30 -390 -13
-495 l13 -80 543 -3 c298 -1 542 -1 542 1 0 3 -131 231 -291 508 -160 277
-323 559 -361 627 -39 67 -74 122 -78 122 -5 0 -25 -19 -45 -42z"/>
<path d="M3984 1369 c10 -51 73 -188 130 -284 142 -237 357 -432 615 -557 86
-42 105 -48 115 -37 9 10 411 702 523 902 2 4 -309 7 -693 7 l-696 0 6 -31z"/>
</g>
</svg>
